<?xml version="1.0" encoding="UTF-8" standalone="no"?>
<!-- Created with Inkscape (http://www.inkscape.org/) -->

<svg
   xmlns:dc="http://purl.org/dc/elements/1.1/"
   xmlns:cc="http://creativecommons.org/ns#"
   xmlns:rdf="http://www.w3.org/1999/02/22-rdf-syntax-ns#"
   xmlns:svg="http://www.w3.org/2000/svg"
   xmlns="http://www.w3.org/2000/svg"
   version="1.1"
   width="300"
   height="122.01225"
   id="svg12173">
  <defs
     id="defs12175">
    <clipPath
       id="clipPath1070-9">
      <path
         d="m 178.194,278.554 34.29,0 0,13.946 -34.29,0 L 178.194,278.554 Z"
         id="path1072-8" />
    </clipPath>
    <clipPath
       id="clipPath1086-4">
      <path
         d="m 169.793,276.66 51.57,0 0,18.84 -51.57,0 L 169.793,276.66 Z"
         id="path1088-1" />
    </clipPath>
  </defs>
  <metadata
     id="metadata12178">
    <rdf:RDF>
      <cc:Work
         rdf:about="">
        <dc:format>image/svg+xml</dc:format>
        <dc:type
           rdf:resource="http://purl.org/dc/dcmitype/StillImage" />
        <cc:license
           rdf:resource="" />
        <dc:title></dc:title>
      </cc:Work>
    </rdf:RDF>
  </metadata>
  <g
     transform="translate(-225,-471.35606)"
     id="layer1">
    <g
       transform="translate(-128.56878,52.289879)"
       id="g10884">
      <g
         transform="matrix(8.7489064,0,0,-8.7489064,511.81281,450.15881)"
         id="g928"
         style="fill:#000000">
        <path
           d="M 0,0 2.422,0 2.896,-4.12 3.341,0 l 2.452,0 0,-7.056 -1.545,0 0,5.24 -0.785,-5.24 -1.153,0 -0.765,5.24 0,-5.24 L 0,-7.056 0,0 Z"
           id="path930"
           style="fill:#000000;fill-opacity:1;fill-rule:nonzero;stroke:none" />
      </g>
      <path
         d="m 566.06219,450.15979 15.93176,0 0,61.73229 -15.93176,0 L 566.06219,450.15979 Z"
         id="path932"
         style="fill:#000000;fill-opacity:1;fill-rule:nonzero;stroke:none" />
      <g
         transform="matrix(8.7489064,0,0,-8.7489064,585.50135,450.15881)"
         id="g934"
         style="fill:#000000">
        <path
           d="m 0,0 1.76,0 0,-2.765 L 2.6,0 4.33,0 3.262,-3.133 l 1.217,-3.923 -1.952,0 -0.767,3.104 0,-3.104 -1.76,0 L 0,0 Z"
           id="path936"
           style="fill:#000000;fill-opacity:1;fill-rule:nonzero;stroke:none" />
      </g>
      <g
         transform="matrix(8.7489064,0,0,-8.7489064,625.55034,450.15881)"
         id="g938"
         style="fill:#000000">
        <path
           d="m 0,0 3.073,0 0,-1.423 -1.253,0 0,-1.291 1.176,0 0,-1.363 -1.176,0 0,-1.556 1.352,0 0,-1.423 L 0,-7.056 0,0 Z"
           id="path940"
           style="fill:#000000;fill-opacity:1;fill-rule:nonzero;stroke:none" />
      </g>
      <g
         transform="matrix(8.7489064,0,0,-8.7489064,496.23815,499.60945)"
         id="g942"
         style="fill:#ff0000;fill-opacity:1">
        <path
           d="m 0,0 -1.217,-0.285 0,-0.008 L 0,-0.562 0,0 z m 1.059,-0.839 0,-0.582 -2.819,0.781 0,0.777 2.819,0.765 0,-0.621 -0.626,-0.156 0,-0.804 L 1.059,-0.839 Z"
           id="path944"
           style="fill:#ff0000;fill-opacity:1;fill-rule:nonzero;stroke:none" />
      </g>
      <g
         transform="matrix(8.7489064,0,0,-8.7489064,505.50576,484.43899)"
         id="g946"
         style="fill:#ff0000;fill-opacity:1">
        <path
           d="m 0,0 0,-0.552 -2.819,0 0,0.8 1.952,0.753 -1.952,0 0,0.552 L 0,1.553 0,0.772 -2.061,0 0,0 Z"
           id="path948"
           style="fill:#ff0000;fill-opacity:1;fill-rule:nonzero;stroke:none" />
      </g>
      <g
         transform="matrix(8.7489064,0,0,-8.7489064,484.6309,461.27178)"
         id="g958"
         style="fill:#ff0000;fill-opacity:1">
        <path
           d="m 0,0 1.953,0 0,0.286 C 1.953,0.461 1.879,0.579 1.73,0.639 1.598,0.691 1.346,0.717 0.976,0.717 0.64,0.717 0.413,0.7 0.293,0.666 0.098,0.609 0,0.489 0,0.306 L 0,0 z m 2.386,-0.588 -2.819,0 0,0.985 c 0,0.362 0.122,0.613 0.367,0.751 0.203,0.112 0.545,0.168 1.027,0.168 0.411,0 0.703,-0.032 0.874,-0.094 C 2.202,1.089 2.386,0.806 2.386,0.374 L 2.386,-0.588 Z"
           id="path960"
           style="fill:#ff0000;fill-opacity:1;fill-rule:nonzero;stroke:none" />
      </g>
      <g
         transform="matrix(8.7489064,0,0,-8.7489064,653.20832,435.28499)"
         id="g962"
         style="fill:#000000">
        <path
           d="M 0,0 -26.507,-0.015 -26.654,-1.156 0,-1.156 0,0 Z"
           id="path964"
           style="fill:#000000;fill-opacity:1;fill-rule:nonzero;stroke:none" />
      </g>
      <path
         d="m 653.56878,541.07843 -300,0 0,-24.71566 300,0 L 653.56878,541.07843 Z"
         id="path966"
         style="fill:#000000;fill-opacity:1;fill-rule:nonzero;stroke:none" />
      <path
         d="m 515.15233,535.73284 -2.89589,0 0,-14.29571 2.89589,0 L 515.15233,535.73284 Z"
         id="path968"
         style="fill:#ffffff;fill-opacity:1;fill-rule:nonzero;stroke:none" />
      <g
         transform="matrix(8.7489064,0,0,-8.7489064,520.3351,535.73022)"
         id="g970">
        <path
           d="m 0,0 -0.31,0 0,1.634 0.451,0 0.424,-1.131 0,1.131 0.311,0 L 0.876,0 0.436,0 0,1.196 0,0 Z"
           id="path972"
           style="fill:#ffffff;fill-opacity:1;fill-rule:nonzero;stroke:none" />
      </g>
      <g
         transform="matrix(8.7489064,0,0,-8.7489064,533.63273,521.43179)"
         id="g974">
        <path
           d="m 0,0 1.072,0 0,-0.272 -0.371,0 0,-1.362 -0.331,0 0,1.362 -0.37,0 L 0,0 Z"
           id="path976"
           style="fill:#ffffff;fill-opacity:1;fill-rule:nonzero;stroke:none" />
      </g>
      <g
         transform="matrix(8.7489064,0,0,-8.7489064,547.35268,527.15104)"
         id="g978">
        <path
           d="m 0,0 0.382,0 0,0.654 0.331,0 0,-1.635 -0.331,0 0,0.73 -0.382,0 0,-0.73 -0.331,0 0,1.635 L 0,0.654 0,0 Z"
           id="path980"
           style="fill:#ffffff;fill-opacity:1;fill-rule:nonzero;stroke:none" />
      </g>
      <g
         transform="matrix(8.7489064,0,0,-8.7489064,563.85662,535.73022)"
         id="g982">
        <path
           d="m 0,0 -0.885,0 0,1.634 0.867,0 0,-0.251 -0.536,0 0,-0.402 0.494,0 0,-0.251 -0.494,0 0,-0.479 L 0,0.251 0,0 Z"
           id="path984"
           style="fill:#ffffff;fill-opacity:1;fill-rule:nonzero;stroke:none" />
      </g>
      <g
         transform="matrix(8.7489064,0,0,-8.7489064,572.80684,535.73022)"
         id="g986">
        <path
           d="m 0,0 -0.324,0 0,1.634 0.535,0 0.248,-1.111 0.005,0 0.264,1.111 0.517,0 0,-1.634 -0.324,0 0,1.261 L 0.613,0 0.293,0 0,1.261 0,0 Z"
           id="path988"
           style="fill:#ffffff;fill-opacity:1;fill-rule:nonzero;stroke:none" />
      </g>
      <g
         transform="matrix(8.7489064,0,0,-8.7489064,590.73772,533.83599)"
         id="g990">
        <path
           d="M 0,0 C 0.088,0 0.147,0.048 0.176,0.143 0.2,0.221 0.212,0.374 0.212,0.601 0.212,0.827 0.2,0.98 0.176,1.059 0.147,1.154 0.088,1.201 0,1.201 -0.088,1.201 -0.147,1.154 -0.177,1.059 -0.2,0.98 -0.212,0.827 -0.212,0.601 -0.212,0.374 -0.2,0.221 -0.177,0.143 -0.147,0.048 -0.088,0 0,0 m 0,-0.244 c -0.244,0 -0.404,0.087 -0.48,0.263 -0.046,0.104 -0.068,0.298 -0.068,0.582 0,0.285 0.022,0.48 0.068,0.584 0.076,0.173 0.236,0.26 0.48,0.26 0.243,0 0.403,-0.087 0.48,-0.26 C 0.525,1.081 0.548,0.886 0.548,0.601 0.548,0.317 0.525,0.123 0.48,0.019 0.403,-0.157 0.243,-0.244 0,-0.244"
           id="path992"
           style="fill:#ffffff;fill-opacity:1;fill-rule:nonzero;stroke:none" />
      </g>
      <g
         transform="matrix(8.7489064,0,0,-8.7489064,600.67552,523.62882)"
         id="g994">
        <path
           d="m 0,0 0,-0.455 0.148,0 0.135,0.081 0.035,0.159 C 0.318,-0.072 0.262,0 0.148,0 L 0,0 z m 0,-0.706 0,-0.677 -0.331,0 0,1.634 0.614,0 c 0.116,0 0.207,-0.037 0.273,-0.112 0.066,-0.074 0.099,-0.18 0.099,-0.318 0,-0.235 -0.098,-0.37 -0.295,-0.403 0.193,-0.024 0.29,-0.131 0.29,-0.321 0,-0.266 0.012,-0.426 0.036,-0.48 l -0.325,0 -0.033,0.156 c -0.002,0.012 -0.003,0.066 -0.003,0.161 0,0.131 -0.007,0.216 -0.022,0.253 C 0.272,-0.742 0.2,-0.706 0.086,-0.706 L 0,-0.706 Z"
           id="path996"
           style="fill:#ffffff;fill-opacity:1;fill-rule:nonzero;stroke:none" />
      </g>
      <g
         transform="matrix(8.7489064,0,0,-8.7489064,611.27482,535.73022)"
         id="g998">
        <path
           d="m 0,0 -0.31,0 0,1.634 0.451,0 0.424,-1.131 0,1.131 0.311,0 L 0.876,0 0.436,0 0,1.196 0,0 Z"
           id="path1000"
           style="fill:#ffffff;fill-opacity:1;fill-rule:nonzero;stroke:none" />
      </g>
      <path
         d="m 624.28619,535.73284 -2.89589,0 0,-14.29571 2.89589,0 L 624.28619,535.73284 Z"
         id="path1002"
         style="fill:#ffffff;fill-opacity:1;fill-rule:nonzero;stroke:none" />
      <g
         transform="matrix(8.7489064,0,0,-8.7489064,629.47429,535.73022)"
         id="g1004">
        <path
           d="m 0,0 -0.31,0 0,1.634 0.451,0 0.425,-1.131 0,1.131 0.31,0 L 0.876,0 0.436,0 0,1.196 0,0 Z"
           id="path1006"
           style="fill:#ffffff;fill-opacity:1;fill-rule:nonzero;stroke:none" />
      </g>
      <g
         transform="matrix(8.7489064,0,0,-8.7489064,648.82337,525.82646)"
         id="g1008">
        <path
           d="m 0,0 -0.329,0 c 0.001,0.091 -0.01,0.157 -0.033,0.2 l -0.165,0.086 c -0.093,0 -0.153,-0.062 -0.18,-0.184 -0.018,-0.074 -0.027,-0.215 -0.027,-0.421 0,-0.253 0.016,-0.417 0.046,-0.491 0.031,-0.075 0.095,-0.112 0.192,-0.112 l 0.165,0.031 0,0.363 -0.18,0 0,0.251 0.511,0 0,-0.829 c -0.18,-0.036 -0.33,-0.054 -0.448,-0.054 -0.265,0 -0.439,0.066 -0.521,0.197 -0.068,0.108 -0.101,0.328 -0.101,0.662 0,0.269 0.026,0.458 0.076,0.57 0.083,0.174 0.245,0.261 0.486,0.261 0.166,0 0.294,-0.046 0.386,-0.138 C -0.031,0.3 0.01,0.169 0,0"
           id="path1010"
           style="fill:#ffffff;fill-opacity:1;fill-rule:nonzero;stroke:none" />
      </g>
      <g
         transform="matrix(8.7489064,0,0,-8.7489064,353.71226,511.89645)"
         id="g1012"
         style="fill:#000000">
        <path
           d="m 0,0 0,7.056 1.554,0 0.9,-5.375 0.019,0 0.9,5.375 1.515,0 0,-7.056 -0.921,0 0,6.35 L 2.958,0 1.968,0 0.861,6.35 0.861,0 0,0 Z"
           id="path1014"
           style="fill:#000000;fill-opacity:1;fill-rule:nonzero;stroke:none" />
      </g>
      <path
         d="m 402.54516,450.16854 8.54768,0 0,61.73228 -8.54768,0 L 402.54516,450.16854 Z"
         id="path1016"
         style="fill:#000000;fill-opacity:1;fill-rule:nonzero;stroke:none" />
      <g
         transform="matrix(8.7489064,0,0,-8.7489064,417.15408,511.89645)"
         id="g1018"
         style="fill:#000000">
        <path
           d="m 0,0 0,7.056 0.976,0 0,-3.215 1.557,3.215 0.985,0 L 1.876,3.743 3.635,0 2.533,0 0.976,3.528 0.976,0 0,0 Z"
           id="path1020"
           style="fill:#000000;fill-opacity:1;fill-rule:nonzero;stroke:none" />
      </g>
      <g
         transform="matrix(8.7489064,0,0,-8.7489064,451.95277,511.89645)"
         id="g1022"
         style="fill:#000000">
        <path
           d="m 0,0 0,7.056 2.658,0 0,-0.822 -1.681,0 0,-2.207 1.584,0 0,-0.822 -1.584,0 0,-2.383 1.681,0 L 2.658,0 0,0 Z"
           id="path1024"
           style="fill:#000000;fill-opacity:1;fill-rule:nonzero;stroke:none" />
      </g>
      <g
         transform="matrix(8.7489064,0,0,-8.7489064,369.32635,438.4765)"
         id="g1026"
         style="fill:#ff0000;fill-opacity:1">
        <path
           d="m 0,0 -0.018,-0.145 -0.379,0 L -0.38,0 0,0 Z M 0.279,0.19 C 0.23,0.226 0.193,0.233 0.049,0.232 l -0.721,0 -0.002,-0.013 -0.095,-0.775 0.321,0 0.027,0.217 0.381,0 -0.027,-0.217 0.321,0 0.018,0.149 -0.084,0.167 0.123,0.144 0.02,0.166 -0.052,0.12"
           id="path1028"
           style="fill:#ff0000;fill-opacity:1;fill-rule:nonzero;stroke:none" />
      </g>
      <g
         transform="matrix(8.7489064,0,0,-8.7489064,379.56869,439.73547)"
         id="g1030"
         style="fill:#ff0000;fill-opacity:1">
        <path
           d="m 0,0 -0.381,0 0.018,0.144 0.381,0 L 0,0 z m 0.082,0.376 -0.453,0 c -0.111,0 -0.183,-0.017 -0.24,-0.063 L -0.684,0.15 -0.686,0.133 l -0.067,-0.545 0.321,0 0.002,0.013 0.025,0.204 0.382,0 -0.026,-0.217 0.321,0 0.067,0.545 C 0.352,0.233 0.344,0.271 0.307,0.313 0.266,0.357 0.194,0.376 0.082,0.376"
           id="path1032"
           style="fill:#ff0000;fill-opacity:1;fill-rule:nonzero;stroke:none" />
      </g>
      <g
         transform="matrix(8.7489064,0,0,-8.7489064,390.54962,438.4765)"
         id="g1034"
         style="fill:#ff0000;fill-opacity:1">
        <path
           d="m 0,0 -0.04,-0.324 -0.412,0 L -0.413,0 0,0 z m 0.042,0.232 -0.749,0 -0.001,-0.013 -0.095,-0.775 0.748,0 0.001,0 c 0.132,0 0.197,0.014 0.254,0.059 l 0.081,0.16 0.043,0.35 -0.042,0.159 c -0.041,0.046 -0.106,0.06 -0.24,0.06"
           id="path1036"
           style="fill:#ff0000;fill-opacity:1;fill-rule:nonzero;stroke:none" />
      </g>
      <g
         transform="matrix(8.7489064,0,0,-8.7489064,395.29406,436.55962)"
         id="g1038"
         style="fill:#ff0000;fill-opacity:1">
        <path
           d="m 0,0 -0.095,-0.775 0.322,0 0.097,0.788 -0.322,0 L 0,0 Z"
           id="path1040"
           style="fill:#ff0000;fill-opacity:1;fill-rule:nonzero;stroke:none" />
      </g>
      <g
         transform="matrix(8.7489064,0,0,-8.7489064,405.4323,441.3094)"
         id="g1042"
         style="fill:#ff0000;fill-opacity:1">
        <path
           d="m 0,0 -0.397,0 0.04,0.324 0.397,0 L 0,0 Z M 0.309,0.509 C 0.262,0.545 0.203,0.556 0.081,0.556 l -0.423,0 c -0.121,0 -0.18,-0.01 -0.239,-0.047 l -0.097,-0.172 -0.043,-0.35 0.055,-0.172 c 0.046,-0.037 0.104,-0.047 0.229,-0.047 l 0.422,0 10e-4,0 c 0.121,0 0.178,0.009 0.238,0.047 l 0.095,0.172 0.043,0.35 -0.053,0.172"
           id="path1044"
           style="fill:#ff0000;fill-opacity:1;fill-rule:nonzero;stroke:none" />
      </g>
      <g
         transform="matrix(8.7489064,0,0,-8.7489064,354.06572,439.9227)"
         id="g1046"
         style="fill:#ff0000;fill-opacity:1">
        <path
           d="m 0,0 -0.01,-0.16 c 0,-0.244 0.07,-0.467 0.192,-0.65 l 0.062,-0.093 0.201,0.145 -0.062,0.092 c -0.1,0.15 -0.157,0.332 -0.157,0.532 l 0.008,0.132 c 0.018,0.145 0.064,0.283 0.132,0.409 l -0.251,0 C 0.057,0.279 0.017,0.142 0,0"
           id="path1048"
           style="fill:#ff0000;fill-opacity:1;fill-rule:nonzero;stroke:none" />
      </g>
      <g
         transform="matrix(8.7489064,0,0,-8.7489064,357.99485,439.9227)"
         id="g1050"
         style="fill:#ff0000;fill-opacity:1">
        <path
           d="m 0,0 -0.007,-0.105 c 0,-0.164 0.049,-0.315 0.134,-0.437 L 0.19,-0.633 0.389,-0.486 0.326,-0.395 C 0.265,-0.306 0.23,-0.198 0.23,-0.079 l 0.004,0.077 c 0.019,0.154 0.092,0.294 0.198,0.403 l 0.006,0.006 -0.284,0 C 0.073,0.286 0.018,0.147 0,0"
           id="path1052"
           style="fill:#ff0000;fill-opacity:1;fill-rule:nonzero;stroke:none" />
      </g>
      <g
         transform="matrix(8.7489064,0,0,-8.7489064,415.27394,438.35314)"
         id="g1054"
         style="fill:#ff0000;fill-opacity:1">
        <path
           d="m 0,0 -0.008,-0.132 c -0.031,-0.251 -0.145,-0.482 -0.313,-0.665 l -0.084,-0.091 0.167,-0.146 0.084,0.091 c 0.203,0.222 0.343,0.504 0.38,0.809 l 0.01,0.16 -0.017,0.202 -0.245,0 L 0,0"
           id="path1056"
           style="fill:#ff0000;fill-opacity:1;fill-rule:nonzero;stroke:none" />
      </g>
      <g
         transform="matrix(8.7489064,0,0,-8.7489064,411.31419,438.83783)"
         id="g1058"
         style="fill:#ff0000;fill-opacity:1">
        <path
           d="M 0,0 -0.005,-0.077 C -0.023,-0.226 -0.092,-0.363 -0.193,-0.47 l -0.085,-0.091 0.164,-0.149 0.084,0.09 c 0.139,0.147 0.235,0.336 0.26,0.541 l 0.006,0.105 c 0,0.091 -0.015,0.177 -0.043,0.257 l -0.269,0 C -0.027,0.201 0,0.105 0,0"
           id="path1060"
           style="fill:#ff0000;fill-opacity:1;fill-rule:nonzero;stroke:none" />
      </g>
      <g
         transform="matrix(8.7489064,0,0,-8.7489064,357.41401,419.09417)"
         id="g1062"
         style="fill:#ff0000;fill-opacity:1">
        <path
           d="m 0,0 1.528,0 -0.057,-0.501 -1.534,0 L 0,0 Z"
           id="path1064"
           style="fill:#ff0000;fill-opacity:1;fill-rule:nonzero;stroke:none" />
      </g>
      <g
         transform="matrix(8.7489064,0,0,-8.7489064,-1205.4251,2978.1213)"
         id="g1066"
         style="fill:#ff0000;fill-opacity:1">
        <g
           clip-path="url(#clipPath1070-9)"
           id="g1068"
           style="fill:#ff0000;fill-opacity:1">
          <g
             transform="translate(180.68919,292.49091)"
             id="g1074"
             style="fill:#ff0000;fill-opacity:1">
            <path
               d="m 0,0 c 0.285,0 2.568,0.003 2.739,0 0.173,-0.003 0.309,-0.141 0.313,-0.32 l -0.015,-0.176 -3.5,0.001 0.024,0.163 C -0.418,-0.192 -0.231,0 0,0"
               id="path1076"
               style="fill:#ff0000;fill-opacity:1;fill-rule:nonzero;stroke:none" />
          </g>
          <g
             transform="translate(183.91589,292.49879)"
             id="g1078"
             style="fill:#ff0000;fill-opacity:1">
            <path
               d="M 0,0 C 0,0 0.98,0.002 1.296,0.001 1.501,0 1.706,-0.096 1.675,-0.426 1.666,-0.523 1.669,-0.504 1.669,-0.504 L -0.06,-0.503 0,0 Z"
               id="path1080"
               style="fill:#ff0000;fill-opacity:1;fill-rule:nonzero;stroke:none" />
          </g>
        </g>
      </g>
      <g
         transform="matrix(8.7489064,0,0,-8.7489064,-1205.4251,2978.1213)"
         id="g1082"
         style="fill:#ff0000;fill-opacity:1">
        <g
           clip-path="url(#clipPath1086-4)"
           id="g1084"
           style="fill:#ff0000;fill-opacity:1">
          <g
             transform="translate(180.0952,290.7169)"
             id="g1090"
             style="fill:#ff0000;fill-opacity:1">
            <path
               d="M 0,0 0.057,0.471 1.185,0.472 1.206,0.68 c 0,0 -0.709,-0.001 -0.824,0.003 C 0.221,0.689 0.064,0.804 0.107,1.089 0.408,1.092 1.318,1.091 1.42,1.09 1.626,1.089 1.799,0.977 1.785,0.694 1.779,0.567 1.748,0.32 1.693,0.224 1.545,-0.031 1.323,0.003 1.281,0 L 0,0"
               id="path1092"
               style="fill:#ff0000;fill-opacity:1;fill-rule:nonzero;stroke:none" />
          </g>
          <g
             transform="translate(183.7029,291.7989)"
             id="g1094"
             style="fill:#ff0000;fill-opacity:1">
            <path
               d="M 0,0 -0.029,-0.155 C -0.054,-0.281 -0.131,-0.4 -0.311,-0.4 l -0.799,0 -0.097,-0.682 -0.578,0 L -1.648,0 0,0 Z"
               id="path1096"
               style="fill:#ff0000;fill-opacity:1;fill-rule:nonzero;stroke:none" />
          </g>
          <g
             transform="translate(183.8293,291.7989)"
             id="g1098"
             style="fill:#ff0000;fill-opacity:1">
            <path
               d="m 0,0 0.597,0 -0.155,-1.079 -0.59,0 L 0,0 Z"
               id="path1100"
               style="fill:#ff0000;fill-opacity:1;fill-rule:nonzero;stroke:none" />
          </g>
          <g
             transform="translate(184.9745,291.7989)"
             id="g1102"
             style="fill:#ff0000;fill-opacity:1">
            <path
               d="m 0,0 0.579,0 -0.137,-1.082 -0.579,0 L 0,0 Z"
               id="path1104"
               style="fill:#ff0000;fill-opacity:1;fill-rule:nonzero;stroke:none" />
          </g>
          <g
             transform="translate(178.5428,291.8056)"
             id="g1106"
             style="fill:#ff0000;fill-opacity:1">
            <path
               d="M 0,0 1.537,0 1.483,-0.414 0.532,-0.415 0.505,-0.617 1.456,-0.618 1.399,-1.092 l -1.53,0 L 0,0 Z"
               id="path1108"
               style="fill:#ff0000;fill-opacity:1;fill-rule:nonzero;stroke:none" />
          </g>
        </g>
      </g>
    </g>
  </g>
</svg>
