<svg version="1.0" xmlns="http://www.w3.org/2000/svg" width="450px" height="150px">
<g>
	<path d="M237.197,12.885c0.426,0.143,0.849,0.281,1.272,0.424c-0.424,0.573-0.847,1.135-1.272,1.708h-0.424
		c-0.143,0.848-0.287,1.697-0.43,2.55h-0.424v0.854c-0.578,1.071-1.914,2.364-2.985,2.979v0.424h0.435
		c1.57,2.523,2.826,0.323,5.53,1.272v0.429c0.848,0.281,1.701,0.568,2.551,0.849c0.424,0.821,1.379,1.744,1.7,2.555v1.702h0.43
		v1.271h0.425v0.854h0.424v1.277h0.423c0.145,0.568,0.287,1.134,0.426,1.702h0.43c0.143,0.848,0.281,1.702,0.424,2.555h0.424v3.828
		c0.488,1.479,1.124,1.612,1.278,3.828c-0.488,0.488-0.171,0-0.426,0.853c2.105-0.042,4.406-0.202,5.96,0.425v0.423h1.272
		c0.287,0.43,0.568,0.854,0.849,1.283c1.112,0.721,4.023,1.395,5.534,1.696c-0.351,1.362-0.499,1.241-2.132,1.278v-0.424h-1.272
		v-0.43h-0.424v1.283c1.633,0.992,3.012,4.051,3.828,5.954h-0.425c-0.137,0.281-0.28,0.572-0.423,0.854
		c-0.858-0.244-0.372,0.048-0.849-0.43h-0.858v-0.848c-1.167-0.663-3.161-2.667-3.828-3.833c-0.568,0.429-1.135,0.853-1.702,1.277
		v0.43c-0.705,0.467-4.744,1.479-6.383,0.849v-0.425h-0.848v-0.424c-0.43-0.292-0.855-0.572-1.278-0.854v2.98h0.423
		c0.145,0.705,0.287,1.415,0.426,2.131h0.43v1.272h0.424c0.144,0.567,0.281,1.134,0.424,1.702h0.43v1.272
		c0.497,1.124,1.071,1.197,1.272,2.984c-0.991,0.138-1.982,0.281-2.979,0.418c-0.742,1.416-0.869,1.866-0.849,4.258
		c-0.467,0.535-0.779,5.555-0.424,6.807c0.158,0.582,0.329-0.165,0.424,0.43v4.256c1.367,4.809,0.467,13.207-0.849,17.872
		c-0.563,1.967-0.053,6.276,0,7.661c-0.73,0.27-1.336,0.402-2.556,0.423c-0.143,0.425-0.285,0.854-0.424,1.273h-0.423v0.854
		c-0.287,0.144-0.574,0.28-0.854,0.424v0.854h-0.424v2.55h-0.43c-0.137,0.853-0.281,1.707-0.424,2.555h-0.423v0.849h-0.426
		c-0.143,0.711-0.286,1.422-0.424,2.132h-0.43v0.848h-0.424v1.278h-0.425c-0.143,0.566-0.286,1.134-0.428,1.707h-0.426
		c-0.137,0.562-0.285,1.133-0.424,1.695h-0.423c-0.145,0.574-0.287,1.136-0.426,1.708h-0.435v1.271h-0.419v0.854h-0.429v1.279
		c-0.864,2.142-1.563,3.742-1.696,6.806h0.423c0.139,0.71,0.287,1.417,0.426,2.127c0.286,0.143,0.562,0.28,0.848,0.423
		c0.848,0.991,1.708,1.988,2.555,2.98c1.269,0.917,2.079,0.8,2.556,2.55c1.506,0.138,1.681,0.562,2.98,0.853
		c0.254,0.684,0.37,1.014,0.423,2.133h-0.854v1.271c-3.403-0.139-6.813-0.281-10.215-0.424v-0.43h-0.85v-0.418
		c-1.531-0.647-5.158-0.817-7.23-0.854c0.276-1.501,0.803-3.987,0-5.535c-0.283-0.139-0.57-0.281-0.854-0.42
		c-0.141-0.571-0.281-1.133-0.421-1.707h-0.429c0.141-0.853,0.286-1.701,0.429-2.55v-1.277h-0.429
		c0.141-1.134,0.286-2.27,0.429-3.402h0.421c0.223-0.516,0.724-2.111,0.424-2.981h-0.424v-0.853h-0.421v-0.854h-0.429
		c-0.141-0.843-0.284-1.695-0.424-2.551h-0.424v-0.853h-0.427c-0.144-0.843-0.284-1.696-0.424-2.55h-0.429v-0.854h-0.424
		c-0.281-1.271-0.565-2.55-0.851-3.826c-0.418-1.163-1.397-4.465-0.848-6.384c0.403-1.416,1.119-2.979,1.274-4.682
		c-2.245-0.317-5.415-0.843-5.958-2.979h0.43v-2.974h0.421V94.58h0.423v-5.1c1.466-5.153,0.859-13.158,0.854-19.578
		c-0.143-1.988-0.284-3.966-0.424-5.955h0.424v-1.706h0.427V60.97h0.425v-0.854h0.424v-1.277h0.429
		c0.14-0.705,0.281-1.416,0.422-2.126h0.429c0.485-0.482,0-0.17,0.848-0.424c0.302-1.813,0.514-5,0.851-6.807
		c-0.56-0.35-0.499-0.297-0.851-0.854h-0.424c-0.57,1.559-1.135,3.123-1.705,4.681h-0.424v0.854h-0.425
		c-0.286,0.849-0.569,1.703-0.851,2.55h-0.43c-0.14,0.567-0.281,1.134-0.423,1.702h-0.421v1.277h-0.43v0.854h-0.424v1.272h-0.424
		c-0.287,0.854-0.57,1.702-0.851,2.556h-0.429v1.702c-0.554,1.675-0.597,5.726-1.699,6.807v0.425h-2.128
		c-0.069,1.611-0.305,2.231-0.851,3.404h-0.424v1.277h-0.429c-0.016,0.286,0.397,0.849,0.429,1.708h-1.274
		c0.031,1.716-0.005,3.557-0.43,4.674h-0.848c-0.405-0.764-0.592-0.667-0.851-1.695c0.627-0.679,0.461-2.509,0.424-3.832
		c-0.424,0.137-0.854,0.28-1.277,0.428c-0.141,1.697-0.281,3.404-0.425,5.1h-0.427v6.383c-0.055,0.341-0.967,3.107-0.854,3.404
		h0.43v0.854c0.43-0.328,0.419-0.523,0.851-0.854c0.17,1.808,1.076,4.91,0.425,7.232h-0.425v3.414h0.848
		c-0.14,0.985-0.283,1.977-0.423,2.974h-0.425c0.144,1.846,0.284,3.689,0.425,5.529h-0.425v4.257
		c-0.005,3.038-0.162,6.145-0.851,8.515c-0.14,1.696-0.283,3.404-0.43,5.1h-0.424v1.277h-0.421
		c-0.143,1.278-0.289,2.556-0.429,3.833h-0.424v2.127h-0.429v1.701h-0.421v1.271h-0.424v1.284h-0.429v1.696h-0.424v5.109h-0.851
		c0.141-2.268,0.281-4.538,0.429-6.806c-1.288-4.384-1.282-10.438-1.282-16.175v-9.357h0.429v-2.555h0.424v-5.105
		c0.379-1.316,0.797-2.365,0.851-4.258h-1.275v-1.272h-0.429c-0.483-0.482,0-0.17-0.846-0.431c0.141-0.423,0.281-0.848,0.422-1.276
		h0.424v-0.853h0.429c0.141-0.987,0.284-1.979,0.424-2.976c0.709-0.567,1.42-1.133,2.128-1.701v-0.849h0.421V95.01h0.429v-1.272
		h0.424v-5.964c0.287-2.551,0.57-5.1,0.851-7.661c-0.421-0.137-0.851-0.28-1.275-0.417V79.27c1.522-0.943,2.73-3.011,2.128-5.963
		c-0.021-0.09-0.596-0.133-0.43-0.843h0.43V71.61h0.424v-1.707h0.427c0.144-1.84,0.284-3.685,0.425-5.53h0.423V63.52
		c0.571-0.424,1.135-0.849,1.706-1.277c0.31-0.668-0.544-2.025,0-3.404h0.424c0.14-0.562,0.287-1.135,0.43-1.696h0.421v-1.277
		c0.284-0.144,0.569-0.288,0.853-0.43c0.14-0.848,0.281-1.697,0.424-2.551h0.427v-0.853h0.424v-3.828h0.424v-1.272h0.429
		c0.141-0.573,0.281-1.134,0.421-1.707h0.43v-1.697h0.424v-1.283h0.424v-0.848h0.429v-1.278h0.421v-2.555h0.425v-1.272h0.429V34.16
		h0.424v-3.403c0.421-1.304,1.363-2.73,1.705-4.257c0.421-0.137,0.845-0.281,1.274-0.425v-0.423h0.851v-0.424h0.849v-0.424h0.851
		v-0.429c1.277-0.281,2.553-0.567,3.833-0.849c0.501-1.129,0.808-1.601,0.849-3.403h0.85c0.403-0.769,0.595-0.673,0.854-1.702
		c-0.71-0.424-1.418-0.854-2.128-1.278c-0.141-0.71-0.281-1.415-0.424-2.125c-0.286-0.144-0.57-0.287-0.851-0.424v-0.853h-0.429
		c0.145-0.43,0.288-0.854,0.429-1.278c0.907-0.514,0.923-0.959,2.128-1.278c-0.055-3.302,0.433-4.908,1.699-6.807
		c0.281-0.143,0.57-0.286,0.851-0.424V3.099h0.424c0.287-0.424,0.571-0.854,0.852-1.278h0.853V1.396
		c0.87-0.493,0.949-0.01,1.699-0.848c4.971-0.175,6.146,0.546,8.513,2.979c0.428,0.281,0.853,0.562,1.276,0.848v1.702
		C237.864,7.568,237.336,10.674,237.197,12.885"/>
	<path d="M11.923,74.514c0,0.419,0.125,0.796,0.337,1.051c0.71,0.917,3.679,1.584,5.31,1.924c2.006,0.461,4.058,0.831,6.067,1.293
		c1.299,0.249,2.552,0.546,3.807,1.05c3.931,1.458,5.185,4.389,5.185,7.065c0,1.968-0.668,3.766-1.547,5.064
		c-2.466,3.721-7.444,5.354-15.391,5.354c-2.974,0-8.87-0.249-12.345-3.352c-2.552-2.258-2.925-4.978-3.096-6.307l10.42-0.298
		c0.374,1.925,2.338,3.388,6.523,3.388c1.087,0,2.635-0.122,3.683-0.711c0.709-0.419,1.466-1.252,1.466-2.258
		c0-1.378-1.13-1.967-1.967-2.26c-1.297-0.418-7.953-1.589-9.413-1.924C9.79,83.342,8.704,83.05,7.574,82.68
		c-1.129-0.419-5.857-2.1-5.857-7.497c0-2.211,0.917-4.263,2.382-5.768c3.309-3.431,9.246-3.77,12.509-3.77
		c3.599,0,7.154,0.504,8.997,1.13c5.519,1.76,6.232,5.9,6.523,7.491l-10.372,0.588c-0.252-0.965-0.755-2.719-5.19-2.719
		C15.187,72.135,11.923,72.341,11.923,74.514"/>
	<path d="M36.926,66.901h10.542v16.774c0,1.844,0.167,3.18,0.835,4.31c1.341,2.307,4.018,2.927,6.152,2.927
		c2.756,0,4.348-0.959,5.058-1.627c1.802-1.676,1.842-4.354,1.842-5.773v-16.61h10.542v15.48c0,3.473-0.082,7.11-1.715,9.623
		c-3.221,5.015-10.998,5.476-15.685,5.476c-6.568,0-10.293-0.917-12.514-2.259c-4.597-2.257-5.058-6.939-5.058-9.329V66.901z"/>
	<path d="M86.85,79.371h6.86c1.797,0,4.474-0.049,4.474-2.89c0-0.997-0.461-1.876-1.086-2.338c-0.755-0.546-1.715-0.588-2.55-0.588
		H86.85V79.371z M76.306,66.859h20.206c3.767,0.085,7.194,0.169,9.538,2.258c1.087,1.007,2.72,3.138,2.72,7.199
		c0,2.004-0.462,4.269-1.965,6.109c-2.72,3.345-7.154,3.593-11.966,3.593H86.85v10.419H76.306V66.859z"/>
	<polygon points="143.602,66.901 143.602,73.555 123.059,73.555 123.059,78.363 142.054,78.363 142.054,85.06 123.021,85.06 
		123.021,89.746 144.019,89.746 144.019,96.438 112.477,96.438 112.477,66.901 	"/>
	<path d="M158.624,78.994h7.947c1.628,0,4.305-0.041,4.305-2.678c0-0.667-0.207-1.378-0.75-1.881
		c-0.835-0.758-1.927-0.838-2.72-0.838h-8.782V78.994z M148.037,66.901h21.709c2.595,0.043,5.776,0.085,8.241,1.888
		c2.133,1.627,3.475,4.517,3.475,7.486c0,2.088-0.667,4.14-1.885,5.604c-1.672,2.008-3.681,2.427-4.935,2.762l7.405,11.797h-11.716
		l-6.064-10.752h-5.644v10.752h-10.587V66.901z"/>
	<path fill="#720062" d="M260.45,66.901h8.747l9.076,9.957c2.587,2.805,3.14,3.478,5.227,6.197
		c-0.168-4.062-0.212-5.488-0.212-9.458v-6.696h10.424v29.536h-8.791l-10.836-12.217c-1.5-1.754-2.004-2.385-3.339-4.056
		c0.127,5.101,0.127,6.23,0.169,9.999v6.273H260.45V66.901z"/>
	<path fill="#720062" d="M315.841,75.104l-3.394,9.998h6.866L315.841,75.104z M309.774,66.901h12.046l12.797,29.536h-11.505
		l-1.59-4.81h-11.291l-1.591,4.81h-11.589L309.774,66.901z"/>
	<path fill="#720062" d="M338.19,66.901h8.747l9.077,9.957c2.587,2.805,3.139,3.478,5.228,6.197
		c-0.17-4.062-0.213-5.488-0.213-9.458v-6.696h10.418v29.536h-8.785l-10.835-12.217c-1.501-1.754-2.005-2.385-3.341-4.056
		c0.121,5.101,0.121,6.23,0.17,9.999v6.273H338.19V66.901z"/>
	<path fill="#720062" d="M376.319,66.901h8.747l9.076,9.957c2.587,2.805,3.14,3.478,5.227,6.197
		c-0.168-4.062-0.211-5.488-0.211-9.458v-6.696h10.417v29.536h-8.785l-10.835-12.217c-1.505-1.754-2.01-2.385-3.34-4.056
		c0.122,5.101,0.122,6.23,0.163,9.999v6.273h-10.459V66.901z"/>
	<path fill="#720062" d="M424.691,66.901l4.896,8.87c0.753,1.548,0.876,1.796,1.549,3.388c0.71-1.633,0.88-2.089,1.798-3.971
		l4.602-8.287h12.214l-13.387,20.751v8.785h-10.465v-8.785l-13.545-20.751H424.691z"/>
</g>
</svg>
